<svg
 xmlns="http://www.w3.org/2000/svg"
 xmlns:xlink="http://www.w3.org/1999/xlink"
 width="102px" height="28px">
<path fill-rule="evenodd"  fill="rgb(238, 37, 45)"
 d="M14.220,11.546 C9.946,11.546 5.567,14.673 5.567,18.513 C5.567,19.970 6.057,21.534 7.424,22.494 C8.089,23.027 8.089,23.807 7.318,24.661 C6.407,25.656 5.077,26.437 3.745,26.437 C2.133,26.437 -0.003,24.910 -0.003,21.960 C-0.003,20.325 1.048,16.806 5.252,13.607 C9.665,10.196 13.449,9.059 17.793,8.775 C26.970,1.346 34.396,-0.003 39.791,-0.003 C45.677,-0.003 50.929,1.915 53.592,2.981 C55.975,3.905 65.223,7.815 71.774,10.729 C78.639,13.607 84.559,15.350 88.622,15.350 C91.881,15.350 96.575,14.176 96.575,10.125 C96.575,8.633 95.979,7.601 95.173,6.998 C94.718,6.606 94.367,6.037 94.367,5.540 C94.367,4.048 95.699,1.774 98.010,1.774 C100.602,1.774 102.003,4.404 102.003,6.394 C102.003,11.795 96.190,15.457 92.265,17.091 C85.049,24.873 77.763,28.003 70.687,28.003 C65.503,28.003 60.529,26.580 53.944,24.164 C48.968,22.315 33.347,15.848 27.075,13.821 C21.296,12.009 18.002,11.546 14.289,11.546 L14.220,11.546 ZM34.361,2.947 C29.563,2.947 25.009,5.399 22.767,9.024 C25.499,9.059 29.633,9.664 36.463,12.186 C43.293,14.533 55.905,20.005 60.318,21.534 C65.223,23.169 69.917,24.519 74.575,24.519 C79.794,24.519 84.454,22.778 86.906,18.300 C82.037,18.939 77.449,18.158 70.687,15.491 C65.503,13.467 51.211,6.820 46.376,5.150 C42.313,3.764 38.390,2.947 34.432,2.947 L34.361,2.947 Z"/>
</svg>
