<?xml version="1.0" standalone="no"?>
<!DOCTYPE svg PUBLIC "-//W3C//DTD SVG 20010904//EN"
 "http://www.w3.org/TR/2001/REC-SVG-20010904/DTD/svg10.dtd">
<svg version="1.0" xmlns="http://www.w3.org/2000/svg"
 width="175.000000pt" height="175.000000pt" viewBox="0 0 175.000000 175.000000"
 preserveAspectRatio="xMidYMid meet">
<metadata>
Created by potrace 1.14, written by Peter Selinger 2001-2017
</metadata>
<g transform="translate(0.000000,175.000000) scale(0.100000,-0.100000)"
fill="#000000" stroke="none">
<path d="M10 1122 c-6 -2 -10 -94 -10 -247 l0 -243 23 -3 c12 -2 40 -2 62 1
l40 5 0 95 0 94 78 2 c85 2 130 23 160 74 44 74 7 184 -71 211 -30 10 -258 19
-282 11z m227 -108 c16 -10 23 -22 20 -38 -5 -42 -25 -56 -82 -56 l-52 0 2 58
c2 31 3 57 4 58 10 6 91 -10 108 -22z"/>
<path d="M472 1105 c-24 -30 -19 -60 14 -81 53 -35 111 39 68 87 -24 26 -59
24 -82 -6z"/>
<path d="M479 963 c-14 -3 -16 -26 -16 -168 -1 -182 -4 -174 68 -167 l37 4 -2
166 -1 166 -35 1 c-19 1 -42 -1 -51 -2z"/>
<path d="M659 962 c-22 -4 -21 -61 1 -66 8 -2 43 -3 77 -2 l61 2 -13 -26 c-8
-14 -46 -72 -84 -130 -39 -57 -69 -105 -67 -107 3 -3 171 -5 284 -4 l52 1 0
35 0 34 -85 3 -85 3 85 128 c47 70 82 128 78 128 -18 3 -290 4 -304 1z"/>
<path d="M1025 960 c-1 -3 -3 -19 -3 -36 l-1 -31 75 1 c41 1 74 -1 74 -4 0 -3
-38 -63 -84 -133 -72 -110 -81 -127 -62 -127 34 -1 248 -1 287 -1 34 1 36 3
36 36 l0 35 -84 0 c-45 0 -83 2 -83 4 0 3 34 57 75 120 41 63 76 120 77 127 2
10 -29 13 -150 14 -85 0 -155 -2 -157 -5z"/>
<path d="M1480 963 c-67 -24 -75 -32 -75 -73 0 -22 2 -40 3 -40 2 0 18 10 34
22 41 28 109 35 131 13 29 -29 19 -40 -55 -64 -119 -38 -160 -103 -105 -167
29 -34 90 -40 141 -14 34 17 36 17 53 -2 13 -14 26 -18 53 -14 69 9 90 23 90
56 0 26 -2 29 -18 21 -33 -17 -40 0 -40 100 0 109 -9 135 -57 155 -33 14 -125
18 -155 7z m110 -219 c0 -30 -5 -37 -32 -49 -39 -16 -58 -5 -58 31 0 17 10 29
38 43 20 10 40 17 45 14 4 -2 7 -20 7 -39z"/>
</g>
</svg>
